<?xml version="1.0" encoding="UTF-8"?>
<svg xmlns="http://www.w3.org/2000/svg" width="1254" height="1254" viewBox="0 0 1254 1254" role="img" aria-labelledby="title desc">
  <title>Cut &amp; Sew</title>
  <desc>Garment Foundry icon for Cut &amp; Sew. Monochrome white line-art icon converted to SVG.</desc>
  <g fill="#FFFFFF" fill-rule="evenodd" stroke="none">
    <path d="M 692 820 L 679 824 L 676 826 L 674 826 L 666 830 L 661 831 L 658 833 L 656 833 L 653 835 L 651 835 L 638 841 L 628 844 L 623 847 L 621 847 L 616 850 L 614 850 L 610 852 L 610 853 L 614 852 L 617 850 L 619 850 L 622 848 L 630 846 L 638 842 L 643 841 L 646 839 L 651 838 L 656 835 L 661 834 L 664 832 L 666 832 L 679 826 L 681 826 L 686 823 L 688 823 L 692 821 Z M 708 818 L 709 827 L 710 828 L 710 830 L 711 830 L 712 829 L 712 827 L 711 826 L 711 821 L 709 818 Z M 728 813 L 728 819 L 729 820 L 729 822 L 730 822 L 731 817 L 730 816 L 730 814 Z M 694 798 L 695 801 L 702 808 L 703 808 L 703 806 L 695 798 Z M 714 791 L 714 793 L 722 801 L 724 801 L 724 800 L 715 791 Z M 675 781 L 675 783 L 679 787 L 684 790 L 684 788 L 680 784 Z M 694 774 L 697 778 L 704 783 L 704 781 L 702 779 L 701 779 L 696 774 Z M 813 772 L 803 775 L 795 779 L 787 781 L 784 783 L 782 783 L 779 785 L 777 785 L 764 791 L 759 792 L 756 794 L 749 796 L 744 799 L 742 799 L 738 801 L 738 802 L 743 801 L 746 799 L 748 799 L 759 794 L 764 793 L 767 791 L 769 791 L 782 785 L 787 784 L 792 781 L 794 781 L 797 779 L 799 779 L 802 777 L 809 775 L 813 773 Z M 656 766 L 656 767 L 664 774 L 666 774 L 666 773 L 658 766 Z M 676 759 L 679 763 L 683 766 L 685 766 L 685 765 L 678 759 Z M 637 750 L 637 751 L 645 758 L 647 758 L 644 754 L 643 754 L 639 750 Z M 656 742 L 656 743 L 662 749 L 666 751 L 666 749 Z M 621 736 L 621 737 L 626 742 L 628 742 L 626 739 Z M 641 730 L 644 734 L 648 736 L 648 734 L 647 734 L 643 730 Z M 924 694 L 924 695 L 926 695 L 927 696 L 934 696 L 935 697 L 938 697 L 937 695 Z M 915 693 L 915 694 L 919 694 L 919 693 Z M 954 668 L 954 680 L 955 680 L 955 668 Z M 954 643 L 953 649 L 954 650 L 954 656 L 955 656 L 955 643 Z M 328 633 L 328 634 L 333 634 L 333 633 Z M 954 620 L 953 621 L 953 626 L 954 627 L 954 631 L 955 631 L 955 620 Z M 954 596 L 954 598 L 953 599 L 953 607 L 955 608 L 955 596 Z M 668 592 L 670 596 L 671 601 L 673 601 L 673 599 L 670 592 Z M 954 571 L 954 584 L 955 584 L 955 571 Z M 657 564 L 658 568 L 661 573 L 661 575 L 663 579 L 664 579 L 664 576 L 662 573 L 662 571 L 659 565 Z M 954 546 L 954 550 L 953 552 L 954 553 L 954 559 L 955 559 L 955 546 Z M 647 538 L 647 541 L 649 544 L 651 551 L 653 552 L 650 542 L 648 538 Z M 954 521 L 954 534 L 955 534 L 955 521 Z M 636 511 L 636 514 L 638 517 L 638 519 L 641 525 L 642 525 L 640 517 L 637 511 Z M 954 496 L 954 509 L 955 509 L 955 496 Z M 625 486 L 627 490 L 627 492 L 630 498 L 631 498 L 631 495 L 627 487 Z M 954 471 L 954 483 L 955 483 L 955 471 Z M 615 461 L 615 463 L 617 466 L 619 473 L 621 474 L 617 461 Z M 954 445 L 953 446 L 953 457 L 955 458 L 955 445 Z M 341 442 L 334 443 L 333 444 L 328 445 L 328 446 L 333 446 L 337 444 L 340 444 Z M 605 436 L 607 443 L 610 449 L 611 449 L 607 437 Z M 364 436 L 357 437 L 352 439 L 352 440 L 363 438 Z M 386 430 L 380 431 L 379 432 L 375 432 L 375 433 L 378 434 L 381 432 L 384 432 L 386 431 Z M 414 422 L 404 424 L 403 425 L 398 426 L 398 427 L 406 426 L 407 425 L 414 423 Z M 954 421 L 954 433 L 955 433 L 955 421 Z M 440 415 L 436 415 L 435 416 L 432 416 L 431 417 L 426 418 L 426 420 L 440 416 Z M 795 414 L 794 416 L 795 420 L 796 421 L 800 421 L 802 419 L 801 415 L 800 414 Z M 595 412 L 596 416 L 599 421 L 599 423 L 601 424 L 597 412 Z M 467 408 L 458 409 L 453 411 L 453 412 L 457 412 L 461 410 L 467 409 Z M 656 407 L 654 407 L 654 419 L 656 418 Z M 489 402 L 484 402 L 479 404 L 479 405 L 486 404 L 487 403 L 489 403 Z M 954 397 L 954 408 L 955 408 L 955 397 Z M 505 397 L 498 398 L 496 399 L 496 400 L 503 399 L 505 398 Z M 586 391 L 589 397 L 589 399 L 590 401 L 591 401 L 591 398 L 589 395 L 589 393 L 588 391 Z M 532 390 L 524 391 L 523 392 L 518 393 L 518 394 L 526 393 L 527 392 L 532 391 Z M 654 382 L 654 394 L 656 394 L 656 382 Z M 560 382 L 549 384 L 546 386 L 544 386 L 544 387 L 548 387 L 552 385 L 555 385 L 560 383 Z M 954 374 L 954 385 L 955 385 L 955 374 Z M 586 367 L 584 368 L 580 376 L 572 378 L 572 380 L 580 378 L 582 381 L 583 381 L 582 376 L 586 369 Z M 654 358 L 654 369 L 656 369 L 656 358 Z M 954 352 L 953 362 L 955 363 L 955 352 Z M 597 346 L 595 347 L 590 357 L 592 357 L 597 348 Z M 799 329 L 795 330 L 794 332 L 794 335 L 796 337 L 800 337 L 802 334 L 802 332 Z M 973 288 L 971 287 L 962 287 L 961 286 L 943 285 L 942 284 L 932 284 L 931 283 L 922 283 L 921 282 L 912 282 L 911 281 L 902 281 L 901 280 L 892 280 L 891 279 L 882 279 L 881 278 L 872 278 L 871 277 L 862 277 L 861 276 L 852 276 L 851 275 L 842 275 L 841 274 L 832 274 L 831 273 L 821 273 L 820 272 L 811 272 L 810 271 L 802 271 L 801 270 L 792 270 L 791 269 L 782 269 L 781 268 L 772 268 L 771 267 L 752 266 L 751 265 L 741 265 L 740 264 L 731 264 L 730 263 L 720 263 L 719 262 L 700 261 L 699 260 L 678 259 L 677 258 L 668 258 L 667 257 L 658 257 L 657 256 L 647 256 L 646 255 L 638 255 L 637 256 L 637 301 L 638 302 L 638 347 L 639 348 L 640 348 L 640 344 L 641 343 L 641 283 L 642 282 L 643 283 L 643 287 L 644 288 L 644 291 L 646 296 L 646 300 L 648 305 L 648 309 L 649 310 L 649 313 L 651 318 L 651 322 L 652 323 L 652 326 L 654 331 L 654 344 L 655 344 L 655 341 L 656 340 L 658 342 L 659 345 L 667 352 L 675 355 L 683 355 L 684 356 L 692 356 L 693 357 L 701 357 L 702 358 L 711 358 L 712 359 L 720 359 L 721 360 L 730 360 L 731 361 L 739 361 L 740 362 L 749 362 L 750 363 L 758 363 L 759 364 L 768 364 L 769 365 L 777 365 L 778 366 L 787 366 L 788 367 L 794 367 L 795 368 L 798 377 L 797 378 L 797 380 L 796 381 L 791 397 L 789 399 L 786 400 L 781 405 L 779 409 L 779 411 L 778 412 L 778 420 L 782 429 L 784 431 L 784 436 L 783 437 L 783 450 L 784 451 L 784 455 L 785 456 L 787 464 L 792 474 L 798 483 L 812 501 L 818 513 L 819 520 L 820 521 L 820 530 L 816 541 L 808 550 L 803 552 L 803 553 L 805 553 L 809 551 L 818 543 L 821 537 L 822 531 L 823 530 L 823 519 L 822 518 L 822 515 L 821 514 L 820 509 L 812 495 L 794 471 L 789 460 L 789 458 L 787 454 L 787 448 L 786 447 L 786 438 L 788 434 L 790 436 L 795 438 L 803 438 L 804 437 L 806 437 L 810 435 L 814 431 L 816 428 L 817 422 L 818 421 L 817 412 L 814 406 L 808 400 L 806 387 L 802 378 L 802 375 L 804 370 L 807 368 L 808 369 L 822 370 L 823 371 L 832 371 L 833 372 L 841 372 L 842 373 L 850 373 L 851 374 L 860 374 L 861 375 L 869 375 L 870 376 L 878 376 L 879 377 L 888 377 L 889 378 L 897 378 L 898 379 L 906 379 L 907 380 L 916 380 L 917 381 L 926 381 L 927 380 L 933 379 L 936 377 L 944 368 L 944 366 L 948 358 L 950 350 L 952 347 L 952 345 L 954 342 L 958 329 L 960 326 L 961 321 L 963 318 L 964 313 L 966 310 L 967 305 L 968 304 L 969 305 L 969 714 L 968 715 L 966 715 L 965 714 L 959 714 L 958 713 L 944 712 L 943 711 L 929 710 L 928 709 L 922 709 L 921 708 L 915 708 L 914 707 L 907 707 L 906 706 L 898 706 L 897 705 L 891 705 L 890 704 L 874 703 L 873 701 L 885 689 L 896 683 L 898 683 L 902 681 L 907 681 L 908 680 L 921 680 L 922 681 L 930 681 L 930 680 L 921 674 L 916 672 L 914 670 L 905 666 L 903 664 L 876 651 L 874 649 L 853 639 L 851 637 L 831 627 L 829 627 L 817 620 L 815 620 L 804 614 L 802 614 L 793 609 L 791 609 L 786 606 L 784 606 L 776 602 L 774 602 L 767 599 L 764 599 L 760 597 L 752 596 L 751 595 L 747 595 L 746 594 L 728 593 L 727 594 L 715 595 L 714 596 L 711 596 L 710 597 L 705 598 L 692 604 L 683 611 L 679 608 L 682 605 L 684 601 L 687 598 L 691 591 L 703 575 L 706 567 L 706 556 L 705 555 L 703 547 L 701 544 L 701 542 L 699 539 L 698 534 L 696 531 L 696 529 L 694 526 L 694 524 L 692 521 L 692 519 L 690 516 L 690 514 L 684 501 L 683 496 L 680 491 L 680 489 L 678 486 L 678 484 L 676 481 L 676 479 L 674 476 L 674 474 L 672 471 L 670 464 L 667 459 L 667 457 L 665 454 L 665 452 L 663 449 L 663 447 L 661 444 L 659 437 L 654 428 L 653 423 L 648 413 L 647 408 L 643 401 L 643 399 L 637 387 L 631 381 L 623 378 L 623 375 L 627 364 L 627 344 L 626 343 L 626 338 L 625 337 L 625 334 L 623 331 L 622 326 L 616 314 L 613 311 L 610 311 L 609 312 L 600 313 L 595 315 L 591 315 L 590 316 L 575 319 L 567 322 L 563 322 L 562 323 L 555 324 L 551 326 L 548 326 L 547 327 L 544 327 L 543 328 L 540 328 L 539 329 L 524 332 L 520 334 L 509 336 L 505 338 L 502 338 L 501 339 L 486 342 L 482 344 L 479 344 L 478 345 L 463 348 L 459 350 L 456 350 L 448 353 L 445 353 L 444 354 L 433 356 L 429 358 L 422 359 L 418 361 L 403 364 L 402 365 L 392 367 L 388 369 L 385 369 L 384 370 L 373 372 L 369 374 L 358 376 L 347 380 L 344 380 L 336 383 L 333 383 L 326 386 L 319 387 L 318 388 L 310 390 L 306 393 L 304 397 L 304 399 L 302 402 L 302 404 L 298 411 L 296 418 L 292 425 L 290 432 L 287 437 L 287 439 L 284 444 L 280 457 L 281 458 L 282 463 L 284 466 L 285 471 L 288 476 L 288 478 L 294 491 L 294 493 L 296 496 L 296 498 L 298 501 L 299 506 L 302 511 L 302 513 L 308 526 L 311 536 L 314 541 L 315 546 L 317 549 L 317 551 L 319 554 L 319 556 L 321 559 L 321 561 L 323 564 L 323 566 L 325 569 L 325 571 L 327 574 L 327 576 L 329 579 L 331 586 L 337 598 L 338 603 L 340 606 L 342 613 L 345 618 L 345 620 L 347 623 L 347 625 L 349 628 L 349 630 L 351 633 L 351 635 L 353 638 L 353 640 L 355 643 L 355 645 L 357 648 L 357 650 L 363 663 L 366 673 L 369 678 L 370 683 L 372 686 L 372 688 L 374 691 L 375 696 L 377 699 L 377 701 L 379 704 L 379 706 L 381 710 L 381 715 L 379 717 L 377 717 L 374 719 L 372 719 L 368 721 L 366 723 L 357 728 L 352 733 L 351 733 L 339 745 L 339 746 L 334 751 L 319 771 L 311 765 L 296 757 L 276 744 L 268 737 L 267 737 L 256 726 L 250 718 L 245 708 L 245 706 L 243 702 L 243 697 L 242 696 L 242 686 L 243 685 L 243 681 L 244 680 L 245 674 L 249 666 L 264 650 L 270 646 L 280 641 L 282 641 L 285 639 L 291 638 L 295 636 L 305 635 L 306 634 L 326 633 L 326 632 L 301 632 L 300 633 L 295 633 L 294 634 L 287 635 L 286 636 L 281 637 L 276 640 L 274 640 L 261 648 L 248 661 L 242 672 L 242 674 L 240 678 L 240 681 L 239 682 L 239 699 L 240 700 L 240 704 L 241 705 L 242 710 L 246 718 L 253 728 L 271 745 L 278 749 L 284 754 L 297 761 L 299 763 L 318 773 L 311 781 L 311 782 L 295 798 L 284 806 L 277 809 L 275 811 L 273 811 L 270 813 L 268 813 L 261 816 L 254 817 L 253 818 L 248 818 L 247 819 L 229 819 L 228 821 L 241 831 L 247 834 L 252 838 L 274 849 L 276 849 L 279 851 L 281 851 L 284 853 L 286 853 L 289 855 L 291 855 L 301 859 L 308 867 L 308 868 L 314 874 L 314 875 L 321 882 L 321 883 L 335 898 L 335 899 L 342 906 L 342 907 L 353 918 L 353 919 L 363 929 L 371 935 L 375 936 L 378 938 L 382 938 L 383 939 L 396 939 L 397 938 L 400 938 L 411 934 L 425 924 L 438 953 L 440 955 L 445 965 L 455 979 L 474 999 L 496 1015 L 517 1026 L 519 1026 L 522 1028 L 527 1029 L 533 1032 L 536 1032 L 540 1034 L 543 1034 L 544 1035 L 547 1035 L 552 1037 L 561 1038 L 562 1039 L 576 1040 L 577 1041 L 588 1041 L 589 1042 L 620 1042 L 621 1041 L 632 1041 L 633 1040 L 640 1040 L 641 1039 L 647 1039 L 648 1038 L 653 1038 L 654 1037 L 668 1035 L 669 1034 L 680 1032 L 684 1030 L 687 1030 L 688 1029 L 711 1022 L 714 1020 L 716 1020 L 719 1018 L 726 1016 L 733 1012 L 735 1012 L 755 1002 L 757 1000 L 769 994 L 774 990 L 777 989 L 795 977 L 815 962 L 833 946 L 834 946 L 870 910 L 870 909 L 879 900 L 879 899 L 898 877 L 901 872 L 906 867 L 907 868 L 909 868 L 916 871 L 919 871 L 923 873 L 926 873 L 931 875 L 935 875 L 936 876 L 940 876 L 941 877 L 945 877 L 946 878 L 960 879 L 961 880 L 974 880 L 975 881 L 989 881 L 990 880 L 1001 880 L 1002 879 L 1008 879 L 1009 878 L 1014 878 L 1015 877 L 1022 876 L 1023 875 L 1028 874 L 1031 872 L 1033 872 L 1051 862 L 1065 849 L 1070 842 L 1075 832 L 1076 826 L 1077 825 L 1077 821 L 1078 820 L 1078 803 L 1077 802 L 1077 798 L 1076 797 L 1075 792 L 1072 786 L 1061 774 L 1048 767 L 1045 767 L 1041 765 L 1036 765 L 1035 764 L 1019 764 L 1018 765 L 1013 765 L 1012 766 L 1005 767 L 1004 768 L 999 769 L 996 771 L 994 771 L 982 777 L 973 783 L 965 790 L 964 790 L 946 808 L 946 809 L 929 829 L 920 841 L 918 845 L 909 856 L 907 860 L 904 863 L 897 861 L 896 860 L 901 858 L 903 855 L 903 764 L 888 750 L 880 745 L 873 739 L 863 733 L 860 730 L 862 726 L 862 723 L 863 722 L 864 717 L 869 707 L 871 705 L 881 706 L 882 707 L 886 707 L 887 708 L 899 709 L 900 710 L 905 710 L 906 711 L 912 711 L 913 712 L 919 712 L 920 713 L 926 713 L 927 714 L 933 714 L 934 715 L 940 715 L 941 716 L 961 718 L 962 719 L 969 719 L 970 720 L 973 719 Z M 379 933 L 380 932 L 381 933 L 380 934 Z M 363 922 L 364 921 L 365 922 L 364 923 Z M 426 915 L 427 914 L 428 915 L 427 916 Z M 353 913 L 354 912 L 355 913 L 354 914 Z M 352 912 L 353 911 L 354 912 L 353 913 Z M 430 910 L 431 909 L 432 910 L 431 911 Z M 350 910 L 351 909 L 352 910 L 351 911 Z M 431 909 L 432 908 L 433 909 L 432 910 Z M 349 909 L 350 908 L 351 909 L 350 910 Z M 358 902 L 359 903 L 359 905 L 358 906 L 357 905 L 357 903 Z M 352 902 L 353 903 L 353 906 L 352 907 L 351 906 L 351 903 Z M 357 894 L 358 893 L 359 895 L 358 896 Z M 359 887 L 360 888 L 360 890 L 359 891 L 358 890 L 358 888 Z M 359 885 L 360 884 L 361 885 L 360 886 Z M 358 882 L 359 881 L 360 882 L 359 883 Z M 341 871 L 342 870 L 343 871 L 342 872 Z M 335 868 L 336 867 L 337 868 L 336 869 Z M 333 867 L 334 866 L 335 867 L 334 868 Z M 901 866 L 896 874 L 891 879 L 882 891 L 875 898 L 875 899 L 867 907 L 867 908 L 835 940 L 834 940 L 826 948 L 825 948 L 809 962 L 778 984 L 775 985 L 760 995 L 751 999 L 749 1001 L 735 1008 L 733 1008 L 724 1013 L 722 1013 L 709 1019 L 707 1019 L 685 1027 L 682 1027 L 674 1030 L 671 1030 L 670 1031 L 666 1031 L 665 1032 L 661 1032 L 660 1033 L 656 1033 L 655 1034 L 651 1034 L 650 1035 L 636 1036 L 635 1037 L 627 1037 L 626 1038 L 583 1038 L 582 1037 L 566 1036 L 565 1035 L 560 1035 L 559 1034 L 555 1034 L 554 1033 L 550 1033 L 549 1032 L 542 1031 L 541 1030 L 527 1026 L 519 1022 L 517 1022 L 503 1015 L 501 1013 L 498 1012 L 489 1006 L 475 994 L 474 994 L 458 977 L 443 955 L 432 933 L 432 931 L 428 923 L 429 919 L 433 915 L 442 902 L 453 880 L 455 878 L 457 879 L 494 915 L 495 915 L 566 981 L 567 981 L 577 990 L 580 990 L 591 985 L 593 985 L 596 983 L 598 983 L 601 981 L 603 981 L 606 979 L 608 979 L 613 976 L 615 976 L 618 974 L 625 972 L 637 966 L 642 965 L 652 960 L 654 960 L 657 958 L 664 956 L 669 953 L 671 953 L 674 951 L 676 951 L 679 949 L 686 947 L 691 944 L 693 944 L 696 942 L 703 940 L 708 937 L 710 937 L 713 935 L 720 933 L 725 930 L 727 930 L 730 928 L 737 926 L 754 918 L 756 918 L 759 916 L 761 916 L 764 914 L 771 912 L 776 909 L 783 907 L 788 904 L 795 902 L 812 894 L 817 893 L 831 886 L 841 883 L 846 880 L 853 878 L 858 875 L 860 875 L 863 873 L 870 871 L 875 868 L 877 868 L 890 862 Z M 549 839 L 562 850 L 563 850 L 568 855 L 569 855 L 574 860 L 575 860 L 581 867 L 585 878 L 585 884 L 584 885 L 584 888 L 582 890 L 578 890 L 568 881 L 567 881 L 559 873 L 554 870 L 554 858 L 553 857 L 553 853 L 552 852 L 550 844 L 548 841 Z M 547 839 L 548 838 L 549 839 L 548 840 Z M 493 835 L 505 831 L 535 860 L 536 860 L 557 879 L 558 879 L 563 884 L 564 884 L 576 894 L 576 982 L 575 983 L 550 960 L 549 960 L 527 939 L 526 939 L 497 911 L 496 911 L 485 900 L 484 900 L 472 888 L 471 888 L 457 875 L 457 873 L 467 857 L 482 842 L 491 837 Z M 509 831 L 514 829 L 522 829 L 523 830 L 531 831 L 538 834 L 543 839 L 548 849 L 549 855 L 550 856 L 551 866 L 549 867 Z M 529 826 L 530 825 L 531 826 L 530 827 Z M 528 825 L 529 824 L 530 825 L 529 826 Z M 527 824 L 528 823 L 529 824 L 528 825 Z M 238 824 L 239 823 L 240 824 L 239 825 Z M 526 823 L 527 822 L 528 823 L 527 824 Z M 525 822 L 526 821 L 527 822 L 526 823 Z M 523 821 L 524 820 L 525 821 L 524 822 Z M 522 820 L 523 819 L 524 820 L 523 821 Z M 521 819 L 522 818 L 523 819 L 522 820 Z M 275 815 L 276 814 L 277 815 L 276 816 Z M 277 814 L 278 813 L 279 814 L 278 815 Z M 365 811 L 366 810 L 367 811 L 366 812 Z M 364 810 L 365 809 L 366 810 L 365 811 Z M 507 808 L 508 807 L 509 808 L 508 809 Z M 506 807 L 507 806 L 508 807 L 507 808 Z M 361 807 L 362 806 L 363 807 L 362 808 Z M 503 805 L 504 804 L 505 805 L 504 806 Z M 502 804 L 503 803 L 504 804 L 503 805 Z M 348 796 L 349 795 L 350 796 L 349 797 Z M 490 795 L 491 794 L 492 795 L 491 796 Z M 347 795 L 348 794 L 349 795 L 348 796 Z M 489 794 L 490 793 L 491 794 L 490 795 Z M 485 791 L 486 790 L 487 791 L 486 792 Z M 484 790 L 485 789 L 486 790 L 485 791 Z M 332 784 L 333 783 L 334 784 L 333 785 Z M 330 783 L 331 782 L 332 783 L 331 784 Z M 474 782 L 475 781 L 476 782 L 475 783 Z M 329 782 L 330 781 L 331 782 L 330 783 Z M 471 780 L 472 779 L 473 780 L 472 781 Z M 317 780 L 318 779 L 319 780 L 318 781 Z M 470 779 L 471 778 L 472 779 L 471 780 Z M 469 778 L 470 777 L 471 778 L 470 779 Z M 319 777 L 320 776 L 321 777 L 320 778 Z M 845 771 L 846 770 L 847 772 L 850 773 L 854 777 L 855 777 L 856 778 L 856 780 L 851 783 L 849 783 L 845 785 L 844 784 L 844 782 L 845 781 Z M 1072 794 L 1072 796 L 1074 800 L 1074 805 L 1075 806 L 1075 817 L 1074 818 L 1074 823 L 1073 824 L 1071 832 L 1067 840 L 1062 847 L 1054 855 L 1043 863 L 1031 869 L 1029 869 L 1019 873 L 1011 874 L 1010 875 L 1005 875 L 1004 876 L 996 876 L 995 877 L 969 877 L 968 876 L 957 876 L 956 875 L 950 875 L 949 874 L 944 874 L 943 873 L 929 871 L 928 870 L 921 869 L 917 867 L 914 867 L 908 864 L 929 835 L 933 831 L 945 815 L 950 810 L 950 809 L 964 795 L 965 795 L 975 786 L 984 781 L 986 779 L 996 774 L 998 774 L 1008 770 L 1018 769 L 1019 768 L 1035 768 L 1036 769 L 1045 770 L 1056 775 L 1060 778 L 1066 784 Z M 854 769 L 855 768 L 856 770 L 855 771 Z M 457 769 L 458 768 L 459 769 L 458 770 Z M 899 768 L 899 819 L 898 820 L 898 850 L 899 851 L 899 854 L 898 855 L 891 857 L 886 860 L 879 862 L 874 865 L 867 867 L 862 870 L 857 871 L 852 874 L 850 874 L 842 878 L 840 878 L 823 886 L 818 887 L 806 893 L 801 894 L 796 897 L 794 897 L 784 902 L 782 902 L 779 904 L 772 906 L 767 909 L 765 909 L 762 911 L 755 913 L 750 916 L 748 916 L 745 918 L 738 920 L 733 923 L 731 923 L 728 925 L 721 927 L 709 933 L 699 936 L 694 939 L 692 939 L 687 942 L 685 942 L 682 944 L 675 946 L 670 949 L 668 949 L 665 951 L 663 951 L 660 953 L 658 953 L 655 955 L 648 957 L 631 965 L 629 965 L 626 967 L 624 967 L 621 969 L 614 971 L 597 979 L 595 979 L 592 981 L 590 981 L 587 983 L 585 983 L 581 985 L 580 984 L 580 895 L 581 894 L 592 891 L 605 885 L 610 884 L 615 881 L 617 881 L 625 877 L 630 876 L 635 873 L 645 870 L 655 865 L 660 864 L 665 861 L 675 858 L 678 856 L 680 856 L 683 854 L 685 854 L 688 852 L 690 852 L 693 850 L 695 850 L 698 848 L 705 846 L 710 843 L 712 843 L 720 839 L 725 838 L 730 835 L 735 834 L 740 831 L 742 831 L 750 827 L 755 826 L 765 821 L 770 820 L 775 817 L 777 817 L 780 815 L 782 815 L 785 813 L 787 813 L 790 811 L 792 811 L 795 809 L 797 809 L 800 807 L 802 807 L 805 805 L 807 805 L 810 803 L 817 801 L 822 798 L 827 797 L 830 795 L 837 793 L 842 790 L 847 789 L 850 787 L 852 787 L 855 785 L 862 783 L 867 780 L 874 778 L 879 775 L 881 775 L 886 772 L 893 770 L 898 767 Z M 456 768 L 457 767 L 458 768 L 457 769 Z M 455 767 L 456 766 L 457 767 L 456 768 Z M 853 764 L 854 763 L 855 765 L 854 766 Z M 332 760 L 333 759 L 334 760 L 333 761 Z M 441 756 L 442 755 L 443 756 L 442 757 Z M 839 755 L 840 754 L 841 755 L 840 756 Z M 440 755 L 441 754 L 442 755 L 441 756 Z M 439 754 L 440 753 L 441 754 L 440 755 Z M 437 753 L 438 752 L 439 753 L 438 754 Z M 837 752 L 838 751 L 839 752 L 838 753 Z M 436 752 L 437 751 L 438 752 L 437 753 Z M 853 750 L 854 751 L 854 758 L 853 759 L 852 758 L 852 751 Z M 836 751 L 837 750 L 838 751 L 837 752 Z M 342 748 L 343 747 L 344 748 L 343 749 Z M 343 747 L 344 746 L 345 747 L 344 748 Z M 436 746 L 437 745 L 438 746 L 437 747 Z M 344 746 L 345 745 L 346 746 L 345 747 Z M 345 745 L 346 744 L 347 745 L 346 746 Z M 821 737 L 822 736 L 823 737 L 822 738 Z M 859 736 L 860 735 L 862 736 L 873 745 L 877 747 L 893 759 L 897 763 L 893 766 L 891 766 L 886 769 L 884 769 L 881 771 L 879 771 L 876 773 L 874 773 L 871 775 L 869 775 L 866 777 L 864 777 L 860 779 L 859 778 L 860 777 L 860 774 L 859 773 L 858 759 L 857 758 L 857 747 L 858 746 L 858 739 L 859 738 Z M 817 734 L 818 733 L 819 734 L 818 735 Z M 854 733 L 855 732 L 856 733 L 855 734 Z M 816 733 L 817 732 L 818 733 L 817 734 Z M 360 731 L 361 730 L 362 731 L 361 732 Z M 362 730 L 363 729 L 364 730 L 363 731 Z M 363 729 L 364 728 L 365 729 L 364 730 Z M 365 728 L 366 727 L 367 728 L 366 729 Z M 806 726 L 807 725 L 808 726 L 807 727 Z M 368 726 L 369 725 L 370 726 L 369 727 Z M 805 725 L 806 724 L 807 725 L 806 726 Z M 402 722 L 403 721 L 404 722 L 403 723 Z M 385 720 L 386 719 L 387 720 L 386 721 Z M 795 718 L 796 717 L 797 718 L 796 719 Z M 793 717 L 794 716 L 795 717 L 794 718 Z M 792 716 L 793 715 L 794 716 L 793 717 Z M 789 714 L 790 713 L 791 714 L 790 715 Z M 779 707 L 780 706 L 781 707 L 780 708 Z M 778 706 L 779 705 L 780 706 L 779 707 Z M 776 705 L 777 704 L 778 705 L 777 706 Z M 775 704 L 776 703 L 777 704 L 776 705 Z M 766 698 L 767 697 L 768 698 L 767 699 Z M 763 696 L 764 695 L 765 696 L 764 697 Z M 760 694 L 761 693 L 762 694 L 761 695 Z M 611 697 L 610 699 L 606 701 L 604 701 L 599 704 L 597 704 L 584 710 L 582 710 L 576 705 L 577 703 L 581 701 L 594 697 L 604 692 L 606 692 Z M 748 686 L 749 685 L 750 686 L 749 687 Z M 745 684 L 746 683 L 747 684 L 746 685 Z M 742 682 L 743 681 L 744 682 L 743 683 Z M 894 679 L 895 678 L 896 679 L 895 680 Z M 897 678 L 898 677 L 899 678 L 898 679 Z M 901 677 L 902 676 L 903 677 L 902 678 Z M 729 673 L 730 672 L 731 673 L 730 674 Z M 727 672 L 728 671 L 729 672 L 728 673 Z M 726 671 L 727 670 L 728 671 L 727 672 Z M 711 661 L 712 660 L 713 661 L 712 662 Z M 710 660 L 711 659 L 712 660 L 711 661 Z M 707 658 L 708 657 L 709 658 L 708 659 Z M 656 680 L 656 693 L 655 694 L 654 699 L 648 709 L 641 716 L 632 722 L 624 726 L 622 726 L 612 730 L 604 731 L 603 732 L 598 732 L 597 733 L 589 733 L 588 734 L 569 734 L 568 733 L 552 732 L 551 731 L 547 731 L 546 730 L 539 729 L 535 727 L 532 727 L 526 724 L 524 724 L 508 716 L 506 713 L 502 712 L 498 708 L 497 708 L 488 699 L 489 698 L 492 698 L 493 699 L 521 699 L 522 698 L 530 698 L 531 697 L 536 697 L 537 696 L 546 695 L 547 694 L 550 694 L 551 693 L 554 693 L 555 692 L 558 692 L 559 691 L 562 691 L 563 690 L 568 689 L 571 687 L 573 687 L 584 682 L 586 682 L 600 675 L 617 663 L 632 647 L 637 650 L 644 658 L 631 672 L 613 685 L 607 688 L 604 688 L 597 692 L 595 692 L 587 696 L 574 700 L 564 705 L 561 705 L 560 706 L 557 706 L 552 708 L 548 708 L 547 709 L 543 709 L 542 710 L 538 710 L 537 711 L 531 711 L 530 712 L 516 712 L 515 713 L 509 713 L 509 714 L 522 714 L 523 713 L 534 713 L 535 712 L 541 712 L 542 711 L 546 711 L 547 710 L 551 710 L 552 709 L 559 708 L 570 704 L 581 714 L 583 714 L 594 709 L 596 709 L 601 706 L 603 706 L 606 704 L 608 704 L 613 701 L 617 700 L 617 698 L 608 690 L 613 686 L 618 684 L 627 678 L 632 673 L 633 673 L 645 659 L 650 665 L 654 673 L 655 679 Z M 836 757 L 840 765 L 840 769 L 841 770 L 841 783 L 840 784 L 840 786 L 838 788 L 834 790 L 829 791 L 826 793 L 824 793 L 819 796 L 817 796 L 804 802 L 802 802 L 799 804 L 797 804 L 794 806 L 784 809 L 774 814 L 769 815 L 762 819 L 760 819 L 749 824 L 744 825 L 737 829 L 735 829 L 734 830 L 730 829 L 730 831 L 729 832 L 727 832 L 722 835 L 720 835 L 717 837 L 704 841 L 699 844 L 697 844 L 694 846 L 692 846 L 689 848 L 687 848 L 684 850 L 682 850 L 669 856 L 664 857 L 659 860 L 657 860 L 649 864 L 644 865 L 639 868 L 629 871 L 619 876 L 617 876 L 606 881 L 604 881 L 599 884 L 589 887 L 588 886 L 588 874 L 587 873 L 586 868 L 583 863 L 574 854 L 573 854 L 568 849 L 557 841 L 535 822 L 524 814 L 518 808 L 482 781 L 472 772 L 461 764 L 448 752 L 447 752 L 441 745 L 441 743 L 440 742 L 440 734 L 441 732 L 450 723 L 483 699 L 497 713 L 507 720 L 523 728 L 525 728 L 528 730 L 530 730 L 537 733 L 545 734 L 550 736 L 555 736 L 556 737 L 565 737 L 566 738 L 589 738 L 590 737 L 598 737 L 599 736 L 604 736 L 605 735 L 608 735 L 613 733 L 617 733 L 631 726 L 636 725 L 637 723 L 641 721 L 655 706 L 659 696 L 659 693 L 660 692 L 660 682 L 659 681 L 658 673 L 653 663 L 648 656 L 638 647 L 643 645 L 681 645 L 690 650 L 712 667 L 725 675 L 728 678 L 750 692 L 753 695 L 772 707 L 775 710 L 802 728 L 813 737 L 817 739 L 827 748 L 828 748 Z M 677 614 L 678 613 L 679 615 L 678 616 Z M 675 613 L 675 619 L 670 625 L 666 633 L 665 638 L 663 641 L 652 641 L 651 642 L 636 642 L 635 643 L 631 643 L 625 649 L 625 650 L 611 663 L 599 671 L 581 680 L 579 680 L 576 682 L 574 682 L 558 688 L 555 688 L 554 689 L 551 689 L 546 691 L 542 691 L 541 692 L 537 692 L 536 693 L 520 694 L 519 695 L 495 695 L 494 694 L 483 694 L 466 707 L 451 717 L 438 729 L 436 733 L 436 742 L 437 743 L 437 745 L 436 746 L 428 739 L 423 736 L 417 730 L 416 727 L 406 718 L 404 718 L 401 716 L 397 716 L 396 715 L 388 715 L 387 714 L 387 712 L 388 711 L 390 711 L 393 709 L 407 705 L 410 703 L 433 696 L 436 694 L 456 688 L 459 686 L 473 682 L 476 680 L 479 680 L 482 678 L 484 678 L 485 677 L 499 673 L 502 671 L 522 665 L 525 663 L 545 657 L 548 655 L 568 649 L 571 647 L 600 638 L 603 636 L 605 636 L 606 635 L 608 635 L 609 634 L 644 623 L 647 621 L 670 614 L 673 612 Z M 766 604 L 767 603 L 768 604 L 767 605 Z M 762 603 L 763 602 L 765 603 L 764 604 Z M 733 598 L 734 597 L 740 597 L 741 598 L 740 599 L 734 599 Z M 308 401 L 309 402 L 309 405 L 310 406 L 310 409 L 312 414 L 313 424 L 314 425 L 314 433 L 315 434 L 315 449 L 314 450 L 314 458 L 313 459 L 313 464 L 312 465 L 312 469 L 310 474 L 312 473 L 313 468 L 317 460 L 324 466 L 329 477 L 332 487 L 336 494 L 339 504 L 342 509 L 342 511 L 345 516 L 347 523 L 351 530 L 351 532 L 354 537 L 354 539 L 356 542 L 358 549 L 362 556 L 362 558 L 364 561 L 366 568 L 374 585 L 376 592 L 379 597 L 379 599 L 381 602 L 381 604 L 383 607 L 385 614 L 388 619 L 389 624 L 393 631 L 394 636 L 396 639 L 396 641 L 398 644 L 398 646 L 400 649 L 400 651 L 402 654 L 403 660 L 404 661 L 404 671 L 403 672 L 403 675 L 398 682 L 394 690 L 390 695 L 388 700 L 384 706 L 382 703 L 379 693 L 375 685 L 374 680 L 370 672 L 369 667 L 367 664 L 367 662 L 361 649 L 360 644 L 357 639 L 357 637 L 355 634 L 355 632 L 353 629 L 353 627 L 351 624 L 351 622 L 349 619 L 349 617 L 347 614 L 345 607 L 342 602 L 342 600 L 340 597 L 340 595 L 338 592 L 338 590 L 336 587 L 336 585 L 334 582 L 334 580 L 332 577 L 330 570 L 327 565 L 326 560 L 324 557 L 324 555 L 322 552 L 320 545 L 317 540 L 316 535 L 314 532 L 314 530 L 312 527 L 312 525 L 310 522 L 310 520 L 304 507 L 303 502 L 300 497 L 300 495 L 298 492 L 298 490 L 293 480 L 290 470 L 285 459 L 285 453 L 287 450 L 287 448 L 289 445 L 291 438 L 294 433 L 294 431 L 297 426 L 297 424 L 301 417 L 301 415 L 306 405 L 306 403 Z M 794 400 L 800 400 L 805 402 L 812 409 L 814 413 L 814 424 L 812 428 L 807 433 L 802 435 L 796 435 L 791 433 L 785 428 L 782 422 L 781 415 L 784 407 L 789 402 Z M 800 382 L 803 388 L 803 391 L 805 396 L 804 398 L 802 397 L 795 397 L 794 396 L 795 395 L 797 387 Z M 798 369 L 800 368 L 801 370 L 800 371 Z M 793 355 L 794 354 L 804 354 L 805 355 L 805 357 L 804 358 L 803 363 L 802 364 L 796 363 Z M 793 316 L 800 316 L 805 318 L 810 322 L 814 329 L 814 332 L 815 333 L 814 340 L 812 344 L 805 350 L 797 351 L 796 350 L 791 349 L 784 342 L 782 338 L 782 334 L 781 333 L 782 331 L 782 327 L 784 323 L 789 318 Z M 612 317 L 616 322 L 617 326 L 619 329 L 619 331 L 622 338 L 623 349 L 624 350 L 623 365 L 622 366 L 622 369 L 621 370 L 616 387 L 617 387 L 620 382 L 625 382 L 633 388 L 640 401 L 640 403 L 642 406 L 644 413 L 647 418 L 648 423 L 651 428 L 651 430 L 653 433 L 655 440 L 658 445 L 658 447 L 660 450 L 660 452 L 662 455 L 662 457 L 664 460 L 664 462 L 666 465 L 666 467 L 668 470 L 670 477 L 673 482 L 673 484 L 677 492 L 678 497 L 683 507 L 684 512 L 686 515 L 686 517 L 692 530 L 693 535 L 699 548 L 699 550 L 701 554 L 701 557 L 702 558 L 702 566 L 699 574 L 694 580 L 677 606 L 673 610 L 671 610 L 670 611 L 668 611 L 667 612 L 665 612 L 664 613 L 662 613 L 661 614 L 659 614 L 658 615 L 656 615 L 655 616 L 653 616 L 652 617 L 650 617 L 649 618 L 614 629 L 611 631 L 608 631 L 605 633 L 602 633 L 599 635 L 576 642 L 573 644 L 570 644 L 569 645 L 564 646 L 561 648 L 559 648 L 558 649 L 538 655 L 535 657 L 509 665 L 506 667 L 504 667 L 503 668 L 492 671 L 489 673 L 463 681 L 460 683 L 443 688 L 440 690 L 420 696 L 417 698 L 403 702 L 400 704 L 398 704 L 388 708 L 387 707 L 397 692 L 398 689 L 402 684 L 404 679 L 407 675 L 407 672 L 408 671 L 408 661 L 407 660 L 407 657 L 405 654 L 404 649 L 402 646 L 401 641 L 399 638 L 399 636 L 397 633 L 397 631 L 391 618 L 391 616 L 388 611 L 388 609 L 386 606 L 386 604 L 384 601 L 382 594 L 379 589 L 379 587 L 377 584 L 375 577 L 372 572 L 372 570 L 370 567 L 368 560 L 365 555 L 363 548 L 360 543 L 358 536 L 354 529 L 352 522 L 346 510 L 344 503 L 340 496 L 340 494 L 338 491 L 338 489 L 336 486 L 336 484 L 334 481 L 334 479 L 332 476 L 330 469 L 328 465 L 322 459 L 318 457 L 318 450 L 319 449 L 319 431 L 318 430 L 318 423 L 317 422 L 315 408 L 314 407 L 314 404 L 313 403 L 311 395 L 313 393 L 319 392 L 326 389 L 329 389 L 330 388 L 340 386 L 344 384 L 347 384 L 348 383 L 355 382 L 359 380 L 370 378 L 374 376 L 385 374 L 389 372 L 404 369 L 408 367 L 419 365 L 423 363 L 426 363 L 427 362 L 438 360 L 442 358 L 457 355 L 461 353 L 464 353 L 465 352 L 480 349 L 484 347 L 487 347 L 488 346 L 495 345 L 499 343 L 514 340 L 518 338 L 521 338 L 522 337 L 537 334 L 541 332 L 544 332 L 545 331 L 548 331 L 549 330 L 552 330 L 553 329 L 556 329 L 557 328 L 560 328 L 561 327 L 564 327 L 565 326 L 568 326 L 569 325 L 572 325 L 573 324 L 576 324 L 577 323 L 580 323 L 581 322 L 584 322 L 585 321 L 588 321 L 589 320 L 592 320 L 597 318 L 601 318 L 606 316 L 610 316 L 611 317 L 601 335 L 601 336 L 602 336 L 604 334 Z M 640 279 L 641 278 L 642 280 L 641 281 Z M 642 261 L 643 260 L 654 260 L 655 261 L 662 261 L 663 262 L 673 262 L 674 263 L 683 263 L 684 264 L 693 264 L 694 265 L 704 265 L 705 266 L 725 267 L 726 268 L 735 268 L 736 269 L 746 269 L 747 270 L 756 270 L 757 271 L 766 271 L 767 272 L 777 272 L 778 273 L 787 273 L 788 274 L 798 274 L 799 275 L 818 276 L 819 277 L 837 278 L 838 279 L 846 279 L 847 280 L 856 280 L 857 281 L 866 281 L 867 282 L 877 282 L 878 283 L 896 284 L 897 285 L 907 285 L 908 286 L 917 286 L 918 287 L 927 287 L 928 288 L 937 288 L 938 289 L 946 289 L 947 290 L 958 290 L 959 291 L 967 291 L 968 292 L 967 293 L 964 304 L 960 312 L 958 320 L 954 328 L 952 336 L 950 339 L 947 349 L 943 357 L 940 367 L 936 372 L 929 376 L 919 377 L 918 376 L 910 376 L 909 375 L 901 375 L 900 374 L 891 374 L 890 373 L 882 373 L 881 372 L 873 372 L 872 371 L 863 371 L 862 370 L 854 370 L 853 369 L 844 369 L 843 368 L 834 368 L 833 367 L 826 367 L 825 366 L 807 365 L 806 363 L 807 362 L 808 353 L 815 346 L 817 342 L 818 332 L 817 331 L 816 325 L 812 319 L 807 315 L 799 312 L 795 312 L 787 315 L 781 321 L 778 328 L 778 336 L 779 337 L 780 342 L 790 353 L 790 356 L 792 361 L 791 363 L 789 362 L 781 362 L 780 361 L 771 361 L 770 360 L 764 360 L 763 359 L 753 359 L 752 358 L 744 358 L 743 357 L 734 357 L 733 356 L 725 356 L 724 355 L 715 355 L 714 354 L 705 354 L 704 353 L 695 353 L 694 352 L 677 351 L 676 350 L 670 349 L 661 341 L 658 335 L 658 332 L 657 331 L 657 328 L 655 323 L 655 319 L 653 314 L 653 310 L 652 309 L 652 306 L 650 301 L 650 297 L 648 292 L 648 288 L 647 287 L 647 284 L 645 279 L 645 275 L 644 274 L 644 270 L 643 269 Z"/>
  </g>
</svg>
