<?xml version="1.0" encoding="UTF-8"?>
<svg xmlns="http://www.w3.org/2000/svg" width="1254" height="1254" viewBox="0 0 1254 1254" role="img" aria-labelledby="title desc">
  <title>Design Support</title>
  <desc>Garment Foundry icon for Design Support. Bold white icon on transparent background.</desc>
  <g fill="#FFFFFF" fill-rule="evenodd" stroke="none">
    <path d="M 826 1006 L 802 1006 L 802 1008 L 783 1049 L 780 1058 L 774 1069 L 764 1093 L 756 1100 L 746 1099 L 720 1087 L 713 1085 L 708 1082 L 664 1064 L 660 1059 L 660 1050 L 670 1025 L 657 1028 L 644 1033 L 638 1049 L 639 1066 L 644 1075 L 649 1080 L 662 1087 L 683 1095 L 742 1121 L 749 1123 L 760 1122 L 772 1116 L 782 1105 Z M 1127 282 L 1021 237 L 989 247 L 819 631 L 871 449 L 814 377 L 822 256 L 745 199 L 712 94 L 572 94 L 528 157 L 424 182 L 461 352 L 446 417 L 396 449 L 426 617 L 280 332 L 245 319 L 183 351 L 172 391 L 405 851 L 524 956 L 521 808 L 450 665 L 421 460 L 465 428 L 482 377 L 449 200 L 568 153 L 579 307 L 586 117 L 696 116 L 726 210 L 798 268 L 795 389 L 846 458 L 794 687 L 700 899 L 650 483 L 602 974 L 402 976 L 429 901 L 411 887 L 373 985 L 615 993 L 653 575 L 685 923 L 659 991 L 394 1091 L 267 1081 L 217 1030 L 210 956 L 263 880 L 373 842 L 348 829 L 267 858 L 210 915 L 191 989 L 219 1063 L 289 1107 L 375 1111 L 682 1000 L 976 979 L 1083 933 L 1123 880 L 1128 822 L 1097 776 L 1041 761 L 1114 816 L 1094 903 L 993 960 L 843 969 L 1131 318 Z M 697 901 L 698 900 L 699 901 L 698 902 Z M 460 819 L 464 820 L 465 821 L 467 821 L 472 824 L 474 824 L 478 826 L 487 826 L 488 825 L 490 825 L 496 822 L 502 816 L 504 819 L 504 827 L 505 828 L 506 844 L 507 845 L 507 854 L 508 855 L 508 862 L 509 863 L 510 880 L 511 881 L 511 890 L 512 891 L 512 901 L 511 902 L 497 909 L 495 909 L 488 902 L 487 902 L 471 887 L 470 887 L 464 881 L 463 881 L 454 872 L 453 872 L 431 852 L 432 851 L 437 851 L 438 850 L 443 849 L 447 846 L 448 846 L 451 843 L 452 840 L 454 838 L 454 835 L 455 834 L 455 832 L 457 828 L 457 825 Z M 270 460 L 273 462 L 449 808 L 443 831 L 434 838 L 422 837 L 304 598 L 243 481 L 242 476 Z M 308 440 L 312 441 L 495 801 L 486 812 L 480 813 L 460 805 L 457 802 L 353 595 L 281 456 L 285 452 Z M 290 399 L 292 404 L 294 406 L 300 418 L 300 420 L 299 421 L 277 432 L 275 434 L 254 444 L 252 446 L 239 452 L 237 454 L 233 456 L 231 456 L 230 455 L 229 452 L 227 450 L 220 436 L 221 434 L 243 423 L 245 421 L 256 416 L 258 414 L 271 408 L 273 406 L 282 402 L 284 400 L 288 398 Z M 259 343 L 265 349 L 265 351 L 267 355 L 269 357 L 279 378 L 272 383 L 259 389 L 257 391 L 248 395 L 246 397 L 239 400 L 237 402 L 224 408 L 222 410 L 210 416 L 205 406 L 203 404 L 195 387 L 193 385 L 193 383 L 192 382 L 192 376 L 193 375 L 194 371 L 197 368 L 200 367 L 202 365 L 230 351 L 232 349 L 241 345 L 245 342 L 247 342 L 248 341 L 255 341 Z M 1105 292 L 1111 309 L 1091 354 L 1047 336 L 1039 340 L 1042 348 L 1086 367 L 1074 392 L 1048 381 L 1041 384 L 1043 393 L 1069 404 L 1059 428 L 1014 411 L 1006 414 L 1008 422 L 1053 442 L 1040 467 L 1015 456 L 1007 460 L 1009 467 L 1036 479 L 1026 502 L 980 485 L 972 490 L 976 498 L 1019 517 L 1008 541 L 981 530 L 974 535 L 976 542 L 1003 554 L 993 577 L 940 562 L 942 572 L 986 591 L 974 617 L 947 605 L 941 608 L 943 617 L 969 629 L 960 651 L 914 635 L 906 638 L 907 646 L 953 666 L 941 692 L 908 682 L 908 691 L 936 704 L 927 726 L 881 710 L 873 713 L 875 722 L 919 741 L 908 766 L 882 755 L 874 759 L 876 767 L 903 779 L 893 802 L 840 787 L 842 797 L 886 816 L 874 842 L 848 830 L 841 834 L 843 842 L 870 854 L 860 877 L 814 860 L 806 864 L 807 871 L 853 891 L 842 916 L 815 905 L 808 908 L 810 917 L 837 929 L 827 952 L 781 935 L 773 938 L 774 946 L 820 967 L 689 983 L 1006 261 L 1014 258 Z"/>
  </g>
</svg>
